<svg width="250" height="250" viewBox="0 0 250 250" fill="none" xmlns="http://www.w3.org/2000/svg">
<rect width="250" height="250" fill="#02B2AB"/>
<path d="M119.564 30.5611L133.99 43.8553L152.092 36.2966L157.937 55.0223L177.394 57.5273L173.093 76.6669L188.69 88.5645L175.396 102.99L182.955 121.092L164.229 126.937L161.724 146.394L142.584 142.093L130.687 157.69L116.262 144.396L98.1595 151.955L92.314 133.229L72.8578 130.724L77.1583 111.584L61.5612 99.6868L74.8553 85.2616L67.2966 67.1595L86.0223 61.314L88.5273 41.8578L107.667 46.1582L119.564 30.5611Z" fill="#FF8100"/>
<path fill-rule="evenodd" clip-rule="evenodd" d="M133.99 43.8553L119.564 30.5611L107.667 46.1582L88.5273 41.8578L86.0223 61.314L67.2966 67.1595L74.8553 85.2616L61.5612 99.6868L77.1583 111.584L72.8578 130.724L92.314 133.229L98.1595 151.955L116.262 144.396L130.687 157.69L142.584 142.093L161.724 146.394L164.229 126.937L182.955 121.092L175.396 102.99L188.69 88.5645L173.093 76.6669L177.394 57.5273L157.937 55.0223L152.092 36.2966L133.99 43.8553ZM151.41 37.7581L133.766 45.1258L119.705 32.1676L108.108 47.3705L89.4523 43.1787L87.0106 62.1433L68.7582 67.841L76.1258 85.4856L63.1677 99.5463L78.3706 111.143L74.1788 129.799L93.1433 132.241L98.8411 150.493L116.486 143.125L130.546 156.084L142.143 140.881L160.799 145.073L163.241 126.108L181.493 120.41L174.125 102.766L187.084 88.705L171.881 77.1082L176.073 58.4522L157.108 56.0105L151.41 37.7581Z" fill="black"/>
<path fill-rule="evenodd" clip-rule="evenodd" d="M156.557 98.888C157.976 98.4023 159.519 99.1588 160.005 100.578C160.495 102.008 162.25 104.368 165.021 106.777C167.716 109.12 170.985 111.169 174.042 112.187C177.161 113.225 179.458 113.019 180.937 111.889C182.451 110.732 184.045 107.907 184.045 101.457C184.045 99.9573 185.261 98.7416 186.76 98.7416C188.26 98.7416 189.476 99.9573 189.476 101.457C189.476 108.518 187.766 113.505 184.234 116.204C180.668 118.929 176.177 118.621 172.327 117.339C168.414 116.036 164.533 113.548 161.459 110.875C158.46 108.269 155.826 105.137 154.867 102.336C154.382 100.917 155.138 99.3736 156.557 98.888Z" fill="black"/>
<path fill-rule="evenodd" clip-rule="evenodd" d="M119.196 124.274C120.691 124.149 122.004 125.258 122.13 126.752C124.401 153.778 130.258 171.318 146.855 206.183C147.5 207.537 146.925 209.157 145.571 209.801C144.217 210.446 142.597 209.871 141.952 208.517C125.22 173.368 119.067 155.154 116.718 127.207C116.593 125.713 117.702 124.4 119.196 124.274Z" fill="black"/>
<path fill-rule="evenodd" clip-rule="evenodd" d="M131.22 123.096C132.465 122.26 134.152 122.592 134.988 123.837C141.493 133.525 148.242 148.667 146.207 162.055C145.166 168.901 141.824 175.252 135.139 180.003C128.534 184.696 118.88 187.677 105.438 188.34C103.941 188.414 102.667 187.26 102.593 185.762C102.519 184.264 103.673 182.99 105.171 182.916C118.018 182.283 126.532 179.457 131.994 175.576C137.375 171.752 139.998 166.761 140.838 161.239C142.564 149.889 136.739 136.188 130.48 126.864C129.644 125.619 129.975 123.932 131.22 123.096Z" fill="#1E1E1E" stroke="black" stroke-linecap="round"/>
<path d="M164.496 94.1258C164.496 114.37 148.085 130.781 127.841 130.781C107.597 130.781 91.1855 114.37 91.1855 94.1258C91.1855 73.8816 107.597 57.4705 127.841 57.4705C148.085 57.4705 164.496 73.8816 164.496 94.1258Z" fill="#FFB333"/>
<path fill-rule="evenodd" clip-rule="evenodd" d="M165.582 94.1258C165.582 114.97 148.685 131.867 127.841 131.867C106.997 131.867 90.0996 114.97 90.0996 94.1258C90.0996 73.2818 106.997 56.3844 127.841 56.3844C148.685 56.3844 165.582 73.2818 165.582 94.1258ZM127.841 130.781C148.085 130.781 164.496 114.37 164.496 94.1258C164.496 73.8816 148.085 57.4705 127.841 57.4705C107.597 57.4705 91.1857 73.8816 91.1857 94.1258C91.1857 114.37 107.597 130.781 127.841 130.781Z" fill="black"/>
<path d="M148.075 77.712C138.874 58.8388 123.923 78.1345 134.418 96.1625C135.242 96.6594 154.759 98.2048 157.491 95.8105C159.676 93.895 158.066 84.6368 156.988 80.2472C153.02 71.0642 149.392 74.7308 148.075 77.712Z" fill="white"/>
<path fill-rule="evenodd" clip-rule="evenodd" d="M133.427 72.7714C129.697 77.6935 128.61 87.2661 133.948 96.4358L134.018 96.5559L134.137 96.6277C134.229 96.6831 134.333 96.7154 134.399 96.7343C134.479 96.7572 134.573 96.7787 134.675 96.7992C134.879 96.8403 135.145 96.883 135.459 96.9263C136.089 97.013 136.939 97.1057 137.938 97.1948C139.937 97.373 142.55 97.5387 145.223 97.6136C147.894 97.6884 150.638 97.6731 152.893 97.4867C154.02 97.3936 155.039 97.2566 155.872 97.0623C156.683 96.8731 157.4 96.6119 157.848 96.2189C158.56 95.5954 158.883 94.4712 159.025 93.2503C159.17 91.9929 159.137 90.4783 159.004 88.9106C158.736 85.7715 158.058 82.3305 157.514 80.1177L157.504 80.0736L157.486 80.0318C156.48 77.7049 155.476 76.1406 154.486 75.1701C153.488 74.1909 152.472 73.7884 151.488 73.8772C150.524 73.9642 149.708 74.5131 149.071 75.1854C148.69 75.5871 148.357 76.0486 148.077 76.522C145.852 72.3576 143.279 70.1412 140.701 69.5675C137.899 68.944 135.299 70.3014 133.427 72.7714ZM140.465 70.6277C142.76 71.1385 145.316 73.2944 147.586 77.9499L148.098 79.0007L148.571 77.9315C148.882 77.227 149.325 76.4959 149.859 75.9327C150.396 75.3661 150.982 75.0133 151.586 74.9589C152.169 74.9063 152.887 75.1226 153.726 75.9455C154.568 76.7719 155.499 78.1806 156.471 80.421C157.003 82.5993 157.662 85.9572 157.921 89.0027C158.052 90.5378 158.079 91.9711 157.946 93.1255C157.808 94.3165 157.514 95.0679 157.132 95.4021C156.898 95.6077 156.408 95.822 155.625 96.0046C154.865 96.1821 153.904 96.3134 152.804 96.4043C150.606 96.586 147.907 96.6022 145.254 96.5279C142.603 96.4536 140.012 96.2894 138.034 96.113C137.045 96.0247 136.213 95.9338 135.607 95.8503C135.303 95.8085 135.062 95.7693 134.889 95.7344C134.849 95.7264 134.814 95.7188 134.784 95.7118C129.745 86.9098 130.894 77.9117 134.293 73.4274C135.997 71.179 138.204 70.1245 140.465 70.6277Z" fill="black"/>
<path fill-rule="evenodd" clip-rule="evenodd" d="M141.237 82.1061C142.902 85.3686 142.504 89.1344 140.379 90.2333C139.258 90.8129 138.596 90.2072 138.232 88.2699C138.11 87.6229 138.164 87.544 139.149 86.9379C139.725 86.5837 140.196 86.2526 140.196 86.2021C140.196 86.1517 139.807 85.6881 139.331 85.172C138.566 84.342 138.482 84.1512 138.6 83.5184C138.801 82.4477 139.585 81.4012 140.245 81.3242C140.715 81.2691 140.875 81.3951 141.237 82.1061Z" fill="black"/>
<path fill-rule="evenodd" clip-rule="evenodd" d="M153.22 82.1061C154.885 85.3686 154.487 89.1344 152.362 90.2333C151.241 90.8129 150.579 90.2072 150.215 88.2699C150.093 87.6229 150.147 87.544 151.132 86.9379C151.708 86.5837 152.179 86.2526 152.179 86.2021C152.179 86.1517 151.79 85.6881 151.314 85.172C150.549 84.342 150.465 84.1512 150.583 83.5184C150.784 82.4477 151.568 81.4012 152.228 81.3242C152.698 81.2691 152.858 81.3951 153.22 82.1061Z" fill="black"/>
<path d="M157.42 104.334C163.134 100.846 167.533 104.532 162.791 119.885C159.471 130.635 153.233 125.416 151.236 120.491L144.524 120.49L153.154 99.3735L157.42 104.334Z" fill="#FFB333"/>
<path fill-rule="evenodd" clip-rule="evenodd" d="M152.95 98.8704C152.673 98.9831 152.539 99.2998 152.651 99.5777C153.148 100.801 153.645 101.733 154.345 102.551C154.9 103.2 155.566 103.759 156.424 104.338C155.941 104.674 155.454 105.056 154.967 105.479C154.74 105.676 154.716 106.019 154.913 106.246C155.11 106.472 155.453 106.496 155.679 106.299C156.369 105.7 157.048 105.197 157.704 104.797C159.082 103.956 160.311 103.593 161.292 103.674C162.233 103.753 163.011 104.244 163.543 105.29C164.09 106.368 164.377 108.047 164.214 110.451C164.053 112.846 163.45 115.911 162.273 119.724C161.457 122.367 160.484 123.947 159.509 124.798C158.562 125.625 157.593 125.784 156.654 125.54C155.682 125.288 154.698 124.591 153.82 123.621C152.948 122.657 152.216 121.463 151.74 120.287C151.357 119.342 151.15 118.438 151.148 117.696C151.146 116.947 151.35 116.451 151.683 116.181C151.915 115.991 151.95 115.649 151.761 115.417C151.571 115.184 151.229 115.149 150.997 115.339C150.307 115.9 150.06 116.784 150.062 117.699C150.063 118.316 150.177 118.988 150.376 119.672C149.39 119.41 148.535 119.274 147.702 119.274C146.588 119.275 145.553 119.522 144.333 119.982C144.052 120.088 143.911 120.401 144.016 120.682C144.122 120.963 144.436 121.104 144.716 120.998C145.863 120.566 146.763 120.361 147.703 120.36C148.594 120.36 149.556 120.542 150.833 120.934C151.354 122.142 152.112 123.352 153.015 124.35C153.972 125.408 155.13 126.267 156.382 126.592C157.667 126.925 159.005 126.68 160.223 125.616C161.415 124.576 162.467 122.777 163.311 120.045C164.504 116.181 165.129 113.029 165.298 110.524C165.466 108.028 165.185 106.125 164.511 104.798C163.821 103.44 162.725 102.704 161.382 102.592C160.166 102.491 158.808 102.907 157.429 103.698C156.413 103.05 155.718 102.486 155.171 101.846C154.576 101.15 154.132 100.338 153.658 99.1695C153.545 98.8916 153.228 98.7577 152.95 98.8704Z" fill="black"/>
<path d="M156.165 119.19C152.571 116.648 156.658 111.045 159.151 108.561C157.764 110.679 155.473 114.618 157.413 113.433C159.838 111.952 160.657 122.368 156.165 119.19Z" fill="black"/>
<path fill-rule="evenodd" clip-rule="evenodd" d="M159.606 108.859L158.768 108.177C157.495 109.444 155.799 111.522 154.878 113.637C154.417 114.695 154.129 115.807 154.224 116.855C154.321 117.929 154.818 118.903 155.851 119.634C156.46 120.064 157.036 120.307 157.578 120.337C158.142 120.368 158.615 120.165 158.976 119.811C159.323 119.472 159.549 119.012 159.694 118.531C159.839 118.045 159.912 117.504 159.926 116.963C159.954 115.891 159.757 114.735 159.362 113.918C159.167 113.515 158.891 113.127 158.504 112.911C158.144 112.711 157.746 112.692 157.362 112.851C157.408 112.733 157.463 112.603 157.528 112.461C158.014 111.399 158.915 109.912 159.606 108.859ZM156.13 113.524C156.132 113.534 156.133 113.543 156.134 113.552C156.155 113.686 156.213 113.863 156.366 114.004C156.526 114.152 156.719 114.196 156.881 114.194C157.159 114.19 157.445 114.05 157.696 113.897C157.848 113.804 157.917 113.827 157.975 113.86C158.08 113.918 158.231 114.076 158.384 114.391C158.684 115.011 158.865 115.984 158.84 116.934C158.828 117.403 158.765 117.846 158.653 118.219C158.54 118.596 158.387 118.868 158.216 119.035C158.06 119.188 157.88 119.266 157.638 119.252C157.374 119.238 156.993 119.111 156.479 118.747C155.715 118.207 155.375 117.527 155.306 116.758C155.234 115.962 155.45 115.042 155.873 114.071C155.953 113.889 156.039 113.706 156.13 113.524Z" fill="black"/>
<path fill-rule="evenodd" clip-rule="evenodd" d="M101.41 100.641C101.561 102.133 100.474 103.465 98.9816 103.615C94.346 104.083 89.1943 104.823 84.7025 105.816C80.0717 106.84 76.5904 108.043 74.9344 109.234C74.7118 109.394 74.5657 109.522 74.4712 109.617C74.5942 109.766 74.817 109.993 75.2128 110.295C77.4229 111.984 82.6409 114.19 92.5963 116.747C94.0487 117.12 94.9237 118.6 94.5507 120.053C94.1777 121.505 92.6978 122.38 91.2454 122.007C81.3255 119.459 75.1011 117.044 71.916 114.61C70.3376 113.404 68.8878 111.718 68.9215 109.509C68.9551 107.301 70.4514 105.769 71.7633 104.826C74.42 102.915 78.9123 101.535 83.5302 100.514C88.2871 99.4619 93.659 98.6946 98.4361 98.2123C99.9281 98.0617 101.26 99.149 101.41 100.641ZM74.3283 109.404C74.3284 109.404 74.3292 109.406 74.3305 109.41C74.3289 109.406 74.3282 109.404 74.3283 109.404ZM74.3153 109.804C74.3125 109.81 74.3107 109.814 74.3104 109.814C74.3102 109.814 74.3116 109.81 74.3153 109.804Z" fill="black"/>
<path fill-rule="evenodd" clip-rule="evenodd" d="M138.784 105.178C138.828 105.322 138.747 105.474 138.604 105.518C137.763 105.777 136.642 106.381 135.987 107.333C135.663 107.805 135.453 108.36 135.443 109.007C135.433 109.656 135.624 110.415 136.13 111.291C136.205 111.421 136.161 111.587 136.031 111.662C135.901 111.737 135.735 111.693 135.66 111.563C135.115 110.619 134.888 109.764 134.9 108.999C134.912 108.232 135.163 107.574 135.54 107.026C136.287 105.939 137.533 105.279 138.444 104.999C138.588 104.955 138.74 105.035 138.784 105.178Z" fill="black"/>
<path d="M140.351 220.735L167.974 213.351C167.974 213.351 169.97 215.225 169.213 217.2C168.457 219.175 142.418 224.719 141.176 224.325C139.934 223.932 140.351 220.735 140.351 220.735Z" fill="white"/>
<path fill-rule="evenodd" clip-rule="evenodd" d="M140.855 221.163C140.852 221.198 140.85 221.236 140.847 221.276C140.828 221.568 140.816 221.956 140.84 222.35C140.864 222.751 140.924 223.124 141.031 223.405C141.132 223.669 141.24 223.766 141.32 223.8C141.33 223.801 141.346 223.802 141.37 223.802C141.434 223.803 141.525 223.799 141.647 223.79C141.889 223.772 142.219 223.734 142.631 223.675C143.451 223.559 144.564 223.369 145.874 223.122C148.493 222.628 151.88 221.912 155.253 221.122C158.628 220.331 161.978 219.469 164.528 218.683C165.805 218.289 166.867 217.919 167.627 217.591C168.008 217.426 168.297 217.279 168.494 217.152C168.593 217.089 168.657 217.039 168.694 217.003C168.704 216.993 168.711 216.986 168.715 216.981C168.996 216.221 168.77 215.448 168.405 214.802C168.224 214.482 168.02 214.214 167.86 214.026C167.84 214.002 167.821 213.98 167.802 213.959L140.855 221.163ZM167.974 213.351L140.351 220.735C140.351 220.735 139.934 223.932 141.176 224.325C142.418 224.719 168.457 219.175 169.213 217.2C169.97 215.225 167.974 213.351 167.974 213.351Z" fill="black"/>
<path d="M141.129 212.82L153.413 209.996L168.051 213.303C161.22 217.899 146.67 220.503 140.351 220.736C140.079 217.506 140.294 215.784 141.129 212.82Z" fill="black"/>
<path fill-rule="evenodd" clip-rule="evenodd" d="M141.566 213.277C140.862 215.836 140.659 217.448 140.851 220.169C144.004 220.001 148.911 219.308 153.883 218.127C158.599 217.007 163.314 215.461 166.641 213.541L153.414 210.553L141.566 213.277ZM153.413 209.996L141.129 212.82C140.294 215.784 140.079 217.506 140.351 220.736C146.478 220.51 160.346 218.054 167.41 213.715C167.631 213.58 167.844 213.443 168.051 213.303L153.413 209.996Z" fill="black"/>
<path d="M139.587 206.885C142.287 207.066 144.135 206.575 147.832 204.99C150.332 206.861 151.579 207.951 153.525 209.97L141.129 212.82C140.893 210.488 140.354 208.889 139.587 206.885Z" fill="black"/>
<path fill-rule="evenodd" clip-rule="evenodd" d="M139.587 206.885C139.659 207.074 139.729 207.259 139.798 207.442C140.395 209.043 140.832 210.441 141.067 212.277C141.089 212.454 141.11 212.635 141.129 212.82L153.525 209.97C153.373 209.813 153.226 209.661 153.082 209.515C151.377 207.776 150.138 206.715 147.832 204.99C144.411 206.457 142.574 206.986 140.179 206.914C139.986 206.909 139.789 206.899 139.587 206.885ZM140.384 207.462C140.945 208.984 141.366 210.369 141.598 212.155L152.46 209.658C150.956 208.141 149.78 207.135 147.757 205.612C144.584 206.959 142.718 207.497 140.384 207.462Z" fill="black"/>
<path fill-rule="evenodd" clip-rule="evenodd" d="M140.938 221.841L141.072 221.818C141.874 221.684 142.915 221.537 144.102 221.37C144.275 221.345 144.452 221.32 144.631 221.295C146.038 221.095 147.62 220.867 149.238 220.599C152.476 220.063 155.848 219.37 158.247 218.432C158.317 218.404 158.396 218.439 158.423 218.509C158.45 218.578 158.416 218.657 158.346 218.685C155.918 219.634 152.521 220.331 149.282 220.867C147.661 221.136 146.077 221.364 144.669 221.563C144.49 221.589 144.313 221.614 144.14 221.638C142.952 221.806 141.915 221.953 141.117 222.086L140.983 222.108L140.938 221.841Z" fill="#FA3E6E"/>
<path d="M91.6719 179.147L95.117 207.532C95.117 207.532 92.9823 209.246 91.1325 208.221C89.2827 207.195 87.4384 180.637 88.002 179.462C88.5655 178.287 91.6719 179.147 91.6719 179.147Z" fill="white"/>
<path fill-rule="evenodd" clip-rule="evenodd" d="M91.1782 179.587C91.1433 179.579 91.1063 179.571 91.0674 179.563C90.7807 179.504 90.3984 179.437 90.0047 179.406C89.6044 179.373 89.2264 179.38 88.934 179.447C88.6579 179.51 88.5464 179.604 88.5016 179.678C88.4996 179.688 88.4965 179.704 88.4929 179.727C88.4832 179.791 88.4738 179.881 88.4658 180.003C88.4499 180.245 88.4418 180.578 88.4418 180.993C88.442 181.822 88.4746 182.95 88.5357 184.282C88.6579 186.944 88.8928 190.398 89.2031 193.849C89.5135 197.301 89.8986 200.739 90.3199 203.374C90.531 204.693 90.7489 205.797 90.9675 206.595C91.0773 206.996 91.1826 207.303 91.2801 207.515C91.3287 207.622 91.3697 207.692 91.4002 207.734C91.4081 207.745 91.4142 207.753 91.4185 207.758C92.1325 208.142 92.9293 208.027 93.62 207.756C93.9623 207.621 94.2559 207.457 94.4646 207.325C94.4908 207.308 94.5157 207.292 94.539 207.277L91.1782 179.587ZM95.117 207.532L91.6719 179.147C91.6719 179.147 88.5655 178.287 88.002 179.462C87.4384 180.637 89.2827 207.195 91.1325 208.221C92.9823 209.246 95.117 207.532 95.117 207.532Z" fill="black"/>
<path d="M99.4 181.026L100.477 193.584L95.1528 207.616C91.5593 200.208 91.0176 185.437 91.6716 179.147C94.9073 179.33 96.5827 179.784 99.4 181.026Z" fill="black"/>
<path fill-rule="evenodd" clip-rule="evenodd" d="M98.8865 181.395C96.4513 180.34 94.8837 179.913 92.1623 179.722C91.8876 182.868 91.8866 187.823 92.3601 192.912C92.8091 197.738 93.6796 202.623 95.1146 206.186L99.9253 193.508L98.8865 181.395ZM100.477 193.584L99.4 181.026C96.5827 179.784 94.9073 179.33 91.6716 179.147C91.0374 185.246 91.5276 199.322 94.8347 206.923C94.938 207.161 95.044 207.392 95.1528 207.616L100.477 193.584Z" fill="black"/>
<path d="M105.492 180.331C104.936 182.979 105.162 184.877 106.215 188.76C104.012 190.974 102.758 192.055 100.487 193.699L99.3999 181.026C101.742 181.119 103.401 180.809 105.492 180.331Z" fill="black"/>
<path fill-rule="evenodd" clip-rule="evenodd" d="M105.492 180.331C105.295 180.376 105.102 180.419 104.912 180.461C103.243 180.829 101.797 181.066 99.9462 181.041C99.768 181.038 99.5861 181.034 99.3999 181.026L100.487 193.699C100.664 193.571 100.834 193.447 101 193.325C102.959 191.88 104.184 190.801 106.215 188.76C105.241 185.167 104.974 183.274 105.381 180.913C105.413 180.722 105.451 180.528 105.492 180.331ZM104.81 181.039C103.224 181.381 101.794 181.604 99.9928 181.584L100.945 192.689C102.658 191.412 103.818 190.388 105.609 188.598C104.72 185.268 104.448 183.345 104.81 181.039Z" fill="black"/>
<path fill-rule="evenodd" clip-rule="evenodd" d="M90.4951 179.575L90.4984 179.711C90.5187 180.523 90.5187 181.575 90.5187 182.773C90.5187 182.948 90.5187 183.127 90.5188 183.308C90.5193 184.729 90.5236 186.327 90.5623 187.966C90.6398 191.248 90.8547 194.683 91.4475 197.191C91.4647 197.264 91.4196 197.337 91.3466 197.354C91.2736 197.371 91.2005 197.326 91.1832 197.253C90.5834 194.716 90.3684 191.255 90.2909 187.973C90.2521 186.33 90.2477 184.729 90.2472 183.308C90.2472 183.126 90.2472 182.948 90.2472 182.773C90.2472 181.574 90.2472 180.526 90.227 179.717L90.2236 179.582L90.4951 179.575Z" fill="#FA3E6E"/>
<path d="M187.595 88.1628C187.499 91.6371 185.062 92.4655 183.855 92.4454C183.272 91.2993 181.612 89.2365 179.633 90.1533C177.16 91.2993 177.643 93.7121 180.96 93.5914C181.563 93.7121 182.83 94.2549 182.649 97.693C182.838 98.3743 183.294 99.1791 183.976 99.5768C183.051 100.135 182.323 101.336 186.811 101.674C191.299 102.012 191.095 100.448 190.433 99.6232C191.252 99.0373 192.132 98.1341 193.024 96.7883C195.871 92.4936 193.526 90.8168 191.998 90.5152C192.336 90.0327 191.335 89.3088 190.792 89.0073C190.165 88.1387 192.018 84.4231 193.024 82.6739C193.941 80.2129 192.441 80.7236 191.576 81.2866C190.289 82.131 187.692 84.6885 187.595 88.1628Z" fill="white"/>
<path fill-rule="evenodd" clip-rule="evenodd" d="M192.387 81.1756C192.165 81.2551 191.928 81.3813 191.724 81.514C191.109 81.9176 190.164 82.7438 189.362 83.8939C188.561 85.0427 187.913 86.5002 187.866 88.1705C187.816 89.9771 187.153 91.1297 186.314 91.8238C185.485 92.5099 184.509 92.728 183.851 92.717L183.687 92.7143L183.613 92.5686C183.334 92.0211 182.798 91.2565 182.106 90.7441C181.42 90.2369 180.617 89.9967 179.747 90.3998C178.559 90.9504 178.219 91.7316 178.384 92.2673C178.554 92.816 179.328 93.3792 180.95 93.3202L180.982 93.3191L181.013 93.3253C181.364 93.3955 181.907 93.5921 182.327 94.2525C182.736 94.8946 183.007 95.942 182.922 97.662C183.107 98.2941 183.526 99.0006 184.112 99.3424C184.457 99.5433 184.866 99.6231 185.348 99.4832L185.499 100.005C184.933 100.169 184.424 100.102 183.989 99.8916C183.832 100.002 183.702 100.123 183.625 100.241C183.535 100.379 183.536 100.473 183.592 100.562C183.67 100.684 183.892 100.859 184.424 101.023C184.945 101.183 185.719 101.32 186.831 101.403C187.94 101.487 188.743 101.451 189.313 101.345C189.887 101.238 190.198 101.065 190.356 100.898C190.503 100.742 190.54 100.569 190.509 100.383C190.489 100.257 190.437 100.126 190.363 100C188.591 101.164 187.068 100.945 186.302 100.455C185.98 100.249 185.694 99.8086 185.496 99.3258C185.292 98.8314 185.157 98.2372 185.176 97.6727C185.194 97.1094 185.368 96.5412 185.822 96.1561C186.278 95.7691 186.96 95.6154 187.888 95.7581C188.036 95.7809 188.138 95.9195 188.115 96.0677C188.092 96.2159 187.954 96.3176 187.805 96.2948C186.968 96.166 186.467 96.3211 186.173 96.5702C185.877 96.8212 185.734 97.2163 185.718 97.6905C185.703 98.1634 185.817 98.6809 185.998 99.1192C186.183 99.5691 186.415 99.8825 186.595 99.9978C187.177 100.371 188.556 100.632 190.275 99.4026C191.061 98.8397 191.919 97.9629 192.797 96.6384C194.198 94.5257 194.271 93.1331 193.901 92.2604C193.546 91.423 192.744 90.9695 192.055 90.8055C191.543 91.1641 190.859 91.7793 190.371 92.5275C189.852 93.3227 189.579 94.227 189.901 95.1288C190.101 95.6884 190.404 95.874 190.694 95.9007C191.015 95.9302 191.41 95.7745 191.78 95.4702C192.147 95.1697 192.45 94.7552 192.596 94.3413C192.741 93.9277 192.719 93.5535 192.506 93.2733C192.415 93.1539 192.438 92.9836 192.557 92.8928C192.677 92.8021 192.847 92.8253 192.938 92.9447C193.298 93.4185 193.291 94.0019 193.108 94.5213C192.926 95.0404 192.558 95.5345 192.125 95.8899C191.697 96.2416 191.164 96.4892 190.644 96.4415C190.094 96.3909 189.642 96.0185 189.39 95.3115C189.345 95.1865 189.31 95.0619 189.283 94.9381C189.083 94.9639 188.892 94.9381 188.717 94.8706C188.469 94.7754 188.267 94.6038 188.109 94.4109C187.801 94.0369 187.619 93.5371 187.569 93.1629C187.164 91.6979 187.608 90.6323 188.345 89.9151C188.961 89.3157 189.77 88.9692 190.422 88.8075C190.406 88.7294 190.398 88.6488 190.395 88.5683C190.386 88.3505 190.415 88.1039 190.468 87.8432C190.574 87.3214 190.786 86.703 191.044 86.0687C191.557 84.807 192.271 83.4404 192.777 82.5584C192.995 81.9663 193.055 81.589 193.035 81.3634C193.025 81.2533 192.998 81.1948 192.976 81.1646C192.957 81.1375 192.931 81.1188 192.89 81.1066C192.791 81.0772 192.62 81.0922 192.387 81.1756ZM190.743 89.2923C190.133 89.4122 189.314 89.73 188.724 90.3043C188.12 90.8919 187.739 91.7602 188.097 93.0356L188.103 93.0557L188.106 93.0763C188.14 93.3634 188.289 93.7746 188.528 94.066C188.646 94.2094 188.776 94.3115 188.912 94.3637C189.003 94.3989 189.105 94.4145 189.22 94.3988C189.201 93.6074 189.504 92.8621 189.916 92.2308C190.465 91.3894 191.229 90.7123 191.791 90.3274C191.798 90.3032 191.796 90.27 191.775 90.2174C191.74 90.1269 191.659 90.0129 191.532 89.8845C191.307 89.6567 190.992 89.4387 190.743 89.2923ZM192.337 90.3186C193.102 90.5386 193.986 91.0687 194.401 92.0485C194.874 93.1633 194.696 94.7565 193.25 96.9384C192.42 98.1905 191.594 99.0754 190.807 99.6833C190.92 99.867 191.009 100.076 191.045 100.295C191.099 100.624 191.03 100.975 190.75 101.271C190.481 101.556 190.042 101.762 189.413 101.879C188.779 101.997 187.925 102.03 186.79 101.945C185.659 101.86 184.84 101.719 184.264 101.542C183.7 101.368 183.32 101.145 183.135 100.854C182.928 100.531 183.004 100.199 183.17 99.9443C183.258 99.8092 183.376 99.686 183.506 99.5776C182.931 99.0991 182.556 98.3754 182.387 97.7658C182.379 97.7376 182.376 97.7082 182.378 97.6789C182.467 95.9878 182.196 95.0576 181.869 94.5441C181.563 94.0627 181.189 93.9192 180.936 93.864C179.259 93.9169 178.146 93.3357 177.865 92.4277C177.579 91.5007 178.234 90.5025 179.519 89.9071C180.627 89.3934 181.643 89.7262 182.429 90.3077C183.144 90.837 183.696 91.5887 184.017 92.1715C184.561 92.1458 185.318 91.9431 185.968 91.4054C186.673 90.8219 187.277 89.8231 187.323 88.1554C187.373 86.3514 188.073 84.793 188.916 83.5833C189.759 82.3752 190.755 81.5006 191.427 81.0597L191.428 81.0592C191.656 80.9104 191.931 80.7618 192.204 80.6642C192.467 80.5704 192.775 80.506 193.045 80.5861C193.188 80.6287 193.319 80.7121 193.416 80.8456C193.511 80.9762 193.56 81.137 193.576 81.3163C193.607 81.6668 193.511 82.1424 193.278 82.7688L193.27 82.7898L193.259 82.8093C192.76 83.6772 192.051 85.032 191.547 86.2732C191.294 86.895 191.097 87.4777 191 87.9515C190.952 88.1886 190.931 88.3885 190.937 88.547C190.942 88.6702 190.963 88.753 190.988 88.8064C191.267 88.9675 191.639 89.2208 191.918 89.5026C192.067 89.6531 192.207 89.8293 192.281 90.0198C192.318 90.1135 192.34 90.2151 192.337 90.3186Z" fill="black"/>
<g filter="url(#filter0_d_98_156)">
<path d="M99.7421 129.143C94.7292 132.274 90.3934 127.106 88.8521 124.13C87.9019 123.798 86.2476 122.693 87.2329 120.937C88.8346 122.74 94.4317 120.921 90.9655 115.852C91.4872 115.642 92.6389 115.366 93.0718 115.938L95.2097 115.554C96.7555 111.745 100.053 114.064 101.508 115.7C103.733 115.672 103.946 117.198 103.774 117.965C106.851 121.129 105.388 123.715 104.271 124.612C105.86 127.765 101.914 128.946 99.7421 129.143Z" fill="white"/>
</g>
<g filter="url(#filter1_d_98_156)">
<path fill-rule="evenodd" clip-rule="evenodd" d="M88.8903 123.856C90.9238 123.711 92.294 123.292 93.1821 122.73C94.0686 122.17 94.4822 121.464 94.6042 120.711C94.7282 119.947 94.5548 119.108 94.212 118.295C93.87 117.484 93.3679 116.719 92.8631 116.112L92.859 116.107L92.8552 116.102C92.7253 115.93 92.4545 115.85 92.0678 115.873C91.8337 115.887 91.5921 115.936 91.385 115.996C92.1265 117.17 92.4036 118.194 92.3406 119.058C92.2719 120.001 91.8007 120.716 91.1611 121.19C90.5268 121.659 89.7269 121.891 88.9778 121.887C88.3726 121.884 87.7744 121.725 87.3206 121.384C87.2174 121.653 87.1883 121.893 87.2071 122.106C87.2331 122.401 87.3526 122.667 87.5327 122.903C87.8849 123.366 88.4516 123.693 88.8903 123.856ZM88.6601 124.349C89.4565 125.853 90.9311 127.873 92.8444 129.152C93.8238 129.807 94.9277 130.274 96.1209 130.37C97.3009 130.464 98.5505 130.193 99.8309 129.407C100.933 129.3 102.476 128.948 103.569 128.211C104.129 127.834 104.592 127.34 104.797 126.706C104.989 126.116 104.944 125.441 104.605 124.683C105.165 124.169 105.747 123.294 105.865 122.167C105.993 120.942 105.569 119.465 104.066 117.877C104.13 117.453 104.09 116.879 103.767 116.386C103.407 115.835 102.734 115.443 101.629 115.429C100.88 114.612 99.6909 113.639 98.4605 113.323C97.8136 113.156 97.1378 113.168 96.5137 113.501C95.9211 113.816 95.411 114.402 95.0164 115.313L93.1709 115.645C92.862 115.359 92.4127 115.309 92.0361 115.331C91.592 115.357 91.1444 115.488 90.8642 115.6L90.5506 115.726L90.7414 116.005C91.5862 117.241 91.8555 118.245 91.799 119.019C91.7431 119.786 91.3649 120.363 90.8381 120.753C90.3063 121.147 89.6232 121.348 88.9808 121.344C88.3346 121.341 87.7694 121.132 87.4359 120.756C87.3776 120.691 87.2911 120.657 87.2037 120.667C87.1164 120.676 87.0391 120.727 86.9961 120.804C86.7271 121.283 86.6293 121.736 86.6661 122.154C86.7029 122.571 86.8716 122.931 87.1007 123.232C87.5231 123.787 88.1655 124.158 88.6601 124.349ZM93.5665 116.125C93.9989 116.697 94.4117 117.371 94.7123 118.084C95.0779 118.951 95.2863 119.897 95.1403 120.798C94.9923 121.711 94.4842 122.55 93.4723 123.189C92.5378 123.78 91.1809 124.197 89.2892 124.368C90.0854 125.784 91.4422 127.562 93.1462 128.701C94.07 129.319 95.0862 129.742 96.1641 129.828C97.082 129.902 98.0578 129.731 99.0754 129.21C98.7629 129.097 98.4263 128.96 98.1327 128.81C97.8872 128.684 97.6527 128.539 97.4887 128.381C97.3369 128.234 97.1632 127.99 97.2721 127.703C97.3253 127.562 97.4821 127.492 97.6223 127.545C97.7589 127.597 97.8294 127.747 97.7837 127.885C97.7881 127.898 97.8053 127.931 97.8662 127.99C97.9723 128.093 98.1503 128.208 98.3804 128.326C98.8167 128.55 99.3717 128.748 99.7691 128.868C100.83 128.765 102.276 128.428 103.265 127.761C103.764 127.425 104.125 127.019 104.281 126.539C104.422 126.103 104.406 125.568 104.112 124.909L101.251 125.315C101.102 125.336 100.965 125.232 100.944 125.084C100.923 124.935 101.026 124.798 101.175 124.777L104.157 124.354C104.656 123.93 105.217 123.141 105.325 122.11C105.435 121.062 105.081 119.716 103.619 118.195L101.743 117.444L100.805 117.612C101.173 118.025 101.808 118.607 102.611 118.996C102.746 119.061 102.803 119.224 102.737 119.359C102.672 119.494 102.509 119.55 102.375 119.485C101.228 118.929 100.402 118.027 100.103 117.606C99.9195 117.435 99.6857 117.145 99.5329 116.788C99.372 116.412 99.2928 115.939 99.4876 115.452C99.5433 115.313 99.7013 115.246 99.8405 115.301C99.9798 115.357 100.047 115.515 99.9917 115.654C99.8658 115.969 99.9093 116.287 100.032 116.574C100.131 116.805 100.275 117.001 100.399 117.134L101.8 116.882L103.548 117.582C103.556 117.294 103.496 116.964 103.313 116.683C103.093 116.348 102.665 116.035 101.834 115.98L101.897 116.327L101.362 116.423L101.255 115.824C100.538 115.035 99.4216 114.13 98.3254 113.848C97.7727 113.707 97.2434 113.727 96.769 113.98C96.2927 114.234 95.8321 114.743 95.4613 115.656L95.405 115.795L93.5665 116.125ZM97.7825 127.878C97.7827 127.878 97.7831 127.879 97.783 127.882C97.7821 127.879 97.7822 127.878 97.7825 127.878Z" fill="black"/>
</g>
<defs>
<filter id="filter0_d_98_156" x="82.9302" y="113.489" width="26.6851" height="24.6271" filterUnits="userSpaceOnUse" color-interpolation-filters="sRGB">
<feFlood flood-opacity="0" result="BackgroundImageFix"/>
<feColorMatrix in="SourceAlpha" type="matrix" values="0 0 0 0 0 0 0 0 0 0 0 0 0 0 0 0 0 0 127 0" result="hardAlpha"/>
<feOffset dy="4"/>
<feGaussianBlur stdDeviation="2"/>
<feComposite in2="hardAlpha" operator="out"/>
<feColorMatrix type="matrix" values="0 0 0 0 0 0 0 0 0 0 0 0 0 0 0 0 0 0 0.25 0"/>
<feBlend mode="normal" in2="BackgroundImageFix" result="effect1_dropShadow_98_156"/>
<feBlend mode="normal" in="SourceGraphic" in2="effect1_dropShadow_98_156" result="shape"/>
</filter>
<filter id="filter1_d_98_156" x="82.6587" y="113.218" width="27.228" height="25.1701" filterUnits="userSpaceOnUse" color-interpolation-filters="sRGB">
<feFlood flood-opacity="0" result="BackgroundImageFix"/>
<feColorMatrix in="SourceAlpha" type="matrix" values="0 0 0 0 0 0 0 0 0 0 0 0 0 0 0 0 0 0 127 0" result="hardAlpha"/>
<feOffset dy="4"/>
<feGaussianBlur stdDeviation="2"/>
<feComposite in2="hardAlpha" operator="out"/>
<feColorMatrix type="matrix" values="0 0 0 0 0 0 0 0 0 0 0 0 0 0 0 0 0 0 0.25 0"/>
<feBlend mode="normal" in2="BackgroundImageFix" result="effect1_dropShadow_98_156"/>
<feBlend mode="normal" in="SourceGraphic" in2="effect1_dropShadow_98_156" result="shape"/>
</filter>
</defs>
</svg>
